<svg id="Layer_1" style="enable-background:new 0 0 120 120; background-color: #f2f7f8;" version="1.1" viewBox="0 0 120 120" xml:space="preserve" xmlns="http://www.w3.org/2000/svg">
    <style type="text/css">
        .st0{fill:#386BFF;}
    </style>
	<g>
        <path class="st0" d="M53.9,78.9c-1.1-1.6-3.4-2-5-0.8c-1.6,1.1-2,3.4-0.8,5l4.3,6.1C39.5,85.7,29.9,74,29.9,60   c0-9.8,4.7-18.5,12-24c1.3-1,1.7-2.8,1-4.3l0,0c-1-2.1-3.6-2.7-5.4-1.3C28.6,37.2,22.8,47.9,22.8,60c0,18.3,13.3,33.5,30.7,36.6   l-5.4,7.6c-1.1,1.6-0.8,3.8,0.8,5c0.6,0.4,1.4,0.7,2.1,0.7c1.1,0,2.2-0.5,2.9-1.5l8-11.2c2.3-3.3,1.5-4.9-0.1-7.1L53.9,78.9z"/>
		<path class="st0" d="M66.5,23.4l5.4-7.6c1.1-1.6,0.8-3.8-0.8-5c-1.6-1.1-3.8-0.8-5,0.8l-8,11.2C56,25.5,56.5,28,58.2,30l7.9,11.1   c0.7,1,1.8,1.5,2.9,1.5c0.7,0,1.4-0.2,2.1-0.7c1.6-1.1,2-3.4,0.8-5l-4.3-6.1C80.5,34.3,90.1,46,90.1,60c0,9.8-4.7,18.5-12,24   c-1.3,1-1.7,2.8-1,4.3c1,2.1,3.6,2.7,5.4,1.3c8.9-6.8,14.7-17.5,14.7-29.6C97.2,41.7,83.9,26.5,66.5,23.4z"/>
    </g>
</svg>